<svg width="42" height="34" viewBox="0 0 42 34" fill="none" xmlns="http://www.w3.org/2000/svg">
<path d="M28.3825 6.25628V6.50628H28.6325H37.3739C39.7865 6.50628 41.75 8.46958 41.7499 10.8824V28.6972C41.7499 31.11 39.7866 33.0734 37.3738 33.0734H4.62615C2.21338 33.0734 0.25 31.1101 0.25 28.6972V10.8824C0.25 8.46958 2.21338 6.50628 4.62615 6.50628H12.9675H13.2175V6.25628V4.70728C13.2175 2.62272 14.9138 0.926514 16.9983 0.926514H24.6017C26.6863 0.926514 28.3825 2.6228 28.3825 4.70728V6.25628ZM6.22913 30.8253H6.47913V30.5753V9.00449V8.75449H6.22913H4.62615C3.45261 8.75449 2.49821 9.70879 2.49821 10.8824V28.6973C2.49821 29.8709 3.45251 30.8253 4.62615 30.8253H6.22913ZM11.4507 30.7346H11.7007V30.4846V9.13303V8.88303H11.4507H8.97734H8.72734V9.13303V30.4846V30.7346H8.97734H11.4507ZM25.8843 6.50628H26.1343V6.25628V4.70728C26.1343 3.86202 25.4471 3.17481 24.6018 3.17481H16.9984C16.1531 3.17481 15.4659 3.86202 15.4659 4.70728V6.25628V6.50628H15.7159H25.8843ZM27.8184 30.8253H28.0684V30.5753V9.12557V8.73979L27.7488 8.88283C27.7483 8.88287 27.7477 8.88291 27.7471 8.88295C27.7212 8.88477 27.6824 8.88664 27.6298 8.88847C27.5252 8.8921 27.3751 8.89529 27.1849 8.89805C26.8049 8.90354 26.2704 8.90722 25.6324 8.90945C24.3567 8.9139 22.6703 8.91255 20.9854 8.90845C19.3006 8.90436 17.6178 8.89752 16.3496 8.89102C15.7154 8.88777 15.185 8.8846 14.8099 8.8819C14.6222 8.88055 14.4736 8.87931 14.3704 8.87825L14.251 8.87679C14.2269 8.87641 14.2184 8.8761 14.2184 8.87623C14.2184 8.87623 14.2184 8.87624 14.2185 8.87625L13.949 8.84846V9.12557V30.5753V30.8253H14.199H27.8184ZM33.0401 30.7346H33.2901V30.4846V9.13303V8.88303H33.0401H30.5667H30.3167V9.13303V30.4846V30.7346H30.5667H33.0401ZM35.5383 30.5752V30.8252H35.7883H37.3739C38.5474 30.8252 39.5018 29.8709 39.5018 28.6972V10.8824C39.5018 9.70889 38.5475 8.75449 37.3739 8.75449H35.7883H35.5383V9.00449V30.5752Z" fill="#201200" stroke="#EEFCFE" stroke-width="0.5"/>
</svg>
