<svg width="48" height="48" viewBox="0 0 48 48" fill="none" xmlns="http://www.w3.org/2000/svg">
<path d="M37.4062 36.0188C35.3344 32.4188 31.4438 30 27 30H21C16.5562 30 12.6656 32.4188 10.5938 36.0188C13.8938 39.6938 18.675 42 24 42C29.325 42 34.1063 39.6844 37.4062 36.0188ZM48 24C48 37.2562 37.2562 48 24 48C10.7438 48 0 37.2562 0 24C0 10.7438 10.7438 0 24 0C37.2562 0 48 10.7438 48 24ZM24 25.5C27.7313 25.5 30.75 22.4813 30.75 18.75C30.75 15.0188 27.7313 12 24 12C20.2687 12 17.25 15.0188 17.25 18.75C17.25 22.4813 20.2687 25.5 24 25.5Z" fill="#56A5AF"/>
</svg>
